<?xml version="1.0" encoding="utf-8"?>
<!-- Generator: Adobe Illustrator 23.0.1, SVG Export Plug-In . SVG Version: 6.00 Build 0)  -->
<svg version="1.1" xmlns="http://www.w3.org/2000/svg" xmlns:xlink="http://www.w3.org/1999/xlink" x="0px" y="0px"
	 viewBox="0 0 120 30" style="enable-background:new 0 0 120 30;" xml:space="preserve">
<style type="text/css">
	.st0{display:none;}
	.st1{display:inline;}
	.st2{display:inline;fill:#1E2225;}
	.st3{fill:#1E2225;}
	.st4{display:inline;fill:none;}
	.st5{display:inline;enable-background:new    ;}
	.st6{fill:#FFFFFF;}
	.st7{fill:none;}
	.st8{enable-background:new    ;}
</style>
<g id="Capa_2" class="st0">
	<rect x="-234" y="-167" class="st1" width="648" height="370"/>
</g>
<g id="Capa_1">
	<g id="Capa_3" class="st0">
		<rect x="-54.3" y="-8" class="st2" width="294.4" height="53"/>
	</g>
	<g class="st0">
		<g class="st1">
			<circle class="st3" cx="-16.8" cy="18.6" r="22.8"/>
		</g>
		<rect x="-24.8" y="7.1" class="st4" width="16.6" height="23.1"/>
		<g class="st5">
			<path class="st6" d="M-23.2,29.9V7.1h5.9c0.9,0,1.6,0,2.3,0.1c0.6,0.1,1.3,0.3,2,0.5c0.6,0.3,1.2,0.6,1.6,1c0.4,0.4,0.8,1,1,1.7
				c0.2,0.7,0.4,1.5,0.4,2.4c0,0.1,0,0.1,0,0.2c0,2.6-1.1,4.2-3.3,4.6c1.3,0.2,2.3,0.7,3,1.6c0.7,0.9,1,2.2,1.1,3.8
				c0,0.1,0,0.1,0,0.1c0,2.2-0.6,3.9-1.7,4.9c-1.2,1.1-2.9,1.6-5.2,1.6L-23.2,29.9L-23.2,29.9z M-18.1,16.2h1c1.1,0,1.8-0.2,2.2-0.7
				c0.4-0.5,0.6-1.3,0.6-2.3c0-1.8-1-2.7-2.9-2.7h-0.8V16.2z M-18.1,26.4h1.1c1.1,0,1.9-0.3,2.3-0.8s0.6-1.4,0.6-2.5
				c0-1.3-0.2-2.2-0.7-2.7s-1.2-0.8-2.4-0.8h-1V26.4z"/>
		</g>
		<rect x="16.4" y="7.1" class="st4" width="207.8" height="23.1"/>
		<g class="st5">
			<path class="st3" d="M20.2,29.9V10.8h-3.5V7.1h12v3.7h-3.5v19.1L20.2,29.9L20.2,29.9z"/>
			<path class="st3" d="M30.4,29.9V7.1H35v8c1.1-1.1,2.5-1.7,4-1.7c1,0,1.7,0.4,2.2,1.1c0.5,0.7,0.8,1.6,0.8,2.7v12.8h-4.6V17.9
				c0-0.4-0.1-0.7-0.2-0.9c-0.1-0.2-0.4-0.3-0.7-0.3c-0.4,0-0.9,0.2-1.4,0.6v12.7L30.4,29.9L30.4,29.9z"/>
			<path class="st3" d="M50,30.2c-1.8,0-3.2-0.5-4.2-1.4c-1-1-1.5-2.3-1.5-4.1v-5.9c0-1.7,0.5-3.1,1.5-4.1s2.4-1.4,4.2-1.4
				c1.8,0,3.2,0.5,4.1,1.4c0.9,0.9,1.4,2.3,1.4,4.1V22H49v2.9c0,0.6,0.1,1.1,0.2,1.5c0.2,0.3,0.4,0.5,0.8,0.5c0.8,0,1.1-0.5,1.1-1.6
				v-1.1h4.3v0.9c0,1.6-0.5,2.9-1.4,3.7C53.1,29.8,51.8,30.2,50,30.2z M49,19.9h2.2v-1.6c0-0.6-0.1-1-0.3-1.3
				c-0.2-0.3-0.5-0.4-0.9-0.4c-0.4,0-0.6,0.1-0.8,0.4c-0.2,0.3-0.3,0.8-0.3,1.5L49,19.9C49,19.9,49,19.9,49,19.9z"/>
			<path class="st3" d="M57.9,29.9V13.6h4.5V15c1.1-1.1,2.4-1.6,3.9-1.6c0.6,0,1.2,0.2,1.7,0.5c0.5,0.3,0.9,0.8,1.1,1.4
				c1.1-1.3,2.5-1.9,4.2-1.9c0.9,0,1.7,0.4,2.3,1c0.6,0.7,0.9,1.6,0.9,2.9v12.6h-4.5V17.7c0-0.4-0.1-0.8-0.2-1
				c-0.1-0.2-0.4-0.3-0.7-0.3c-0.5,0-1,0.2-1.5,0.6v0.2v12.6h-4.5V17.7c0-0.4-0.1-0.8-0.2-1c-0.1-0.2-0.4-0.3-0.7-0.3
				c-0.5,0-1,0.2-1.5,0.6v12.8L57.9,29.9L57.9,29.9z"/>
			<path class="st3" d="M84.4,30.2c-1.8,0-3.2-0.5-4.2-1.4c-1-1-1.5-2.3-1.5-4.1v-5.9c0-1.7,0.5-3.1,1.5-4.1s2.4-1.4,4.2-1.4
				c1.8,0,3.2,0.5,4.1,1.4c0.9,0.9,1.4,2.3,1.4,4.1V22h-6.5v2.9c0,0.6,0.1,1.1,0.2,1.5c0.2,0.3,0.4,0.5,0.8,0.5
				c0.8,0,1.1-0.5,1.1-1.6v-1.1h4.3v0.9c0,1.6-0.5,2.9-1.4,3.7C87.5,29.8,86.1,30.2,84.4,30.2z M83.3,19.9h2.2v-1.6
				c0-0.6-0.1-1-0.3-1.3c-0.2-0.3-0.5-0.4-0.9-0.4c-0.4,0-0.6,0.1-0.8,0.4c-0.2,0.3-0.3,0.8-0.3,1.5L83.3,19.9
				C83.4,19.9,83.3,19.9,83.3,19.9z"/>
			<path class="st3" d="M97.1,30.2c-1.4,0-2.5-0.3-3.4-1c-0.9-0.6-1.6-1.7-2.2-3.1l3.2-1.4c0.3,0.8,0.7,1.4,1.1,1.8
				c0.4,0.4,0.8,0.6,1.2,0.6c0.1,0,0.1,0,0.1,0c0.3,0,0.5-0.1,0.7-0.3c0.2-0.2,0.3-0.5,0.3-0.8c0-0.1-0.1-0.3-0.2-0.5
				c-0.1-0.2-0.3-0.4-0.6-0.7c-0.3-0.3-0.5-0.5-0.6-0.6c-0.1-0.1-0.4-0.3-0.8-0.7l-1.3-1.1c-1.9-1.6-2.8-3.1-2.8-4.6
				c0-0.9,0.2-1.7,0.7-2.4c0.5-0.7,1.1-1.2,1.8-1.6c0.8-0.4,1.6-0.6,2.5-0.6c1.3,0,2.4,0.4,3.3,1.1c0.9,0.7,1.5,1.8,1.9,3.1l-3,1.4
				c-0.2-0.6-0.4-1.1-0.8-1.6c-0.4-0.5-0.7-0.7-1.2-0.7c0,0,0,0,0,0c-0.3,0-0.6,0.1-0.8,0.3c-0.2,0.2-0.3,0.4-0.3,0.7
				c0,0.4,0.6,1.2,1.9,2.3c0.1,0.1,0.2,0.2,0.2,0.2l1.2,1.1c0.5,0.4,0.8,0.7,1.1,1c0.2,0.2,0.5,0.6,0.9,1c0.4,0.4,0.6,0.8,0.7,1.3
				c0.1,0.4,0.2,0.9,0.2,1.4c0,0.9-0.2,1.7-0.7,2.4c-0.5,0.7-1.1,1.2-1.9,1.5C98.9,30,98,30.2,97.1,30.2z"/>
			<path class="st3" d="M111.7,29.9V7.1h5.9c0.9,0,1.6,0,2.3,0.1c0.6,0.1,1.3,0.3,2,0.5s1.2,0.6,1.6,1c0.4,0.4,0.8,1,1,1.7
				c0.2,0.7,0.4,1.5,0.4,2.4c0,0.1,0,0.1,0,0.2c0,2.6-1.1,4.2-3.3,4.6c1.3,0.2,2.3,0.7,3,1.6c0.7,0.9,1,2.2,1.1,3.8
				c0,0.1,0,0.1,0,0.1c0,2.2-0.6,3.9-1.7,4.9c-1.2,1.1-2.9,1.6-5.2,1.6L111.7,29.9L111.7,29.9z M116.7,16.2h1c1.1,0,1.8-0.2,2.2-0.7
				c0.4-0.5,0.6-1.3,0.6-2.3c0-1.8-1-2.7-2.9-2.7h-0.8V16.2z M116.7,26.4h1.1c1.1,0,1.9-0.3,2.3-0.8s0.6-1.4,0.6-2.5
				c0-1.3-0.2-2.2-0.7-2.7s-1.2-0.8-2.4-0.8h-1V26.4z"/>
			<path class="st3" d="M137.5,28.8c-1,0.9-2.4,1.4-4.2,1.4c-1.8,0-3.2-0.5-4.2-1.4c-1-0.9-1.5-2.2-1.5-4v-6.2c0-1.7,0.5-3.1,1.5-4
				c1-0.9,2.4-1.4,4.2-1.4c1.8,0,3.2,0.5,4.2,1.4c1,0.9,1.5,2.2,1.5,4v6.2C139.1,26.6,138.6,27.9,137.5,28.8z M133.3,27.1
				c0.4,0,0.7-0.2,0.9-0.5c0.2-0.3,0.3-0.8,0.3-1.5v-6.8c0-0.6-0.1-1.1-0.3-1.5c-0.2-0.3-0.5-0.5-0.9-0.5c-0.4,0-0.7,0.2-0.9,0.5
				c-0.2,0.3-0.3,0.8-0.3,1.5v6.8c0,0.6,0.1,1.1,0.3,1.4C132.6,27,132.9,27.1,133.3,27.1z"/>
			<path class="st3" d="M151.1,28.8c-1,0.9-2.4,1.4-4.2,1.4s-3.2-0.5-4.2-1.4c-1-0.9-1.5-2.2-1.5-4v-6.2c0-1.7,0.5-3.1,1.5-4
				c1-0.9,2.4-1.4,4.2-1.4s3.2,0.5,4.2,1.4c1,0.9,1.5,2.2,1.5,4v6.2C152.7,26.6,152.1,27.9,151.1,28.8z M146.9,27.1
				c0.4,0,0.7-0.2,0.9-0.5c0.2-0.3,0.3-0.8,0.3-1.5v-6.8c0-0.6-0.1-1.1-0.3-1.5c-0.2-0.3-0.5-0.5-0.9-0.5c-0.4,0-0.7,0.2-0.9,0.5
				c-0.2,0.3-0.3,0.8-0.3,1.5v6.8c0,0.6,0.1,1.1,0.3,1.4C146.2,27,146.5,27.1,146.9,27.1z"/>
			<path class="st3" d="M159.8,30.1c-0.5,0-1-0.1-1.4-0.2c-0.4-0.1-0.8-0.3-1-0.5c-0.3-0.2-0.5-0.4-0.7-0.7
				c-0.2-0.3-0.4-0.6-0.5-0.9s-0.2-0.7-0.3-1.1c-0.1-0.4-0.1-0.8-0.1-1.2c0-0.4,0-0.8,0-1.3v-7.6h-1.6v-3h1.6V8.7h4.6v4.9h2.3v3
				h-2.3v8.4c0,0.9,0.5,1.3,1.5,1.3c0.1,0,0.3,0,0.4,0s0.3,0,0.4,0c0.1,0,0.2,0,0.3-0.1s0.1,0,0.1,0v3.6c-1,0.2-1.9,0.2-2.7,0.2
				C160.1,30.1,160,30.1,159.8,30.1z"/>
			<path class="st3" d="M169.9,30.2c-1.4,0-2.5-0.3-3.4-1c-0.9-0.6-1.6-1.7-2.2-3.1l3.2-1.4c0.3,0.8,0.7,1.4,1.1,1.8
				c0.4,0.4,0.8,0.6,1.2,0.6c0.1,0,0.1,0,0.1,0c0.3,0,0.5-0.1,0.7-0.3c0.2-0.2,0.3-0.5,0.3-0.8c0-0.1-0.1-0.3-0.2-0.5
				c-0.1-0.2-0.3-0.4-0.6-0.7c-0.3-0.3-0.5-0.5-0.6-0.6c-0.1-0.1-0.4-0.3-0.8-0.7l-1.3-1.1c-1.9-1.6-2.8-3.1-2.8-4.6
				c0-0.9,0.2-1.7,0.7-2.4c0.5-0.7,1.1-1.2,1.8-1.6c0.8-0.4,1.6-0.6,2.5-0.6c1.3,0,2.4,0.4,3.3,1.1c0.9,0.7,1.5,1.8,1.9,3.1l-3,1.4
				c-0.2-0.6-0.4-1.1-0.8-1.6c-0.4-0.5-0.7-0.7-1.2-0.7c0,0,0,0,0,0c-0.3,0-0.6,0.1-0.8,0.3c-0.2,0.2-0.3,0.4-0.3,0.7
				c0,0.4,0.6,1.2,1.9,2.3c0.1,0.1,0.2,0.2,0.2,0.2l1.2,1.1c0.5,0.4,0.8,0.7,1.1,1c0.2,0.2,0.5,0.6,0.9,1c0.4,0.4,0.6,0.8,0.7,1.3
				c0.1,0.4,0.2,0.9,0.2,1.4c0,0.9-0.2,1.7-0.7,2.4c-0.5,0.7-1.1,1.2-1.9,1.5C171.7,30,170.8,30.2,169.9,30.2z"/>
			<path class="st3" d="M181.6,30.1c-0.5,0-1-0.1-1.4-0.2c-0.4-0.1-0.8-0.3-1-0.5c-0.3-0.2-0.5-0.4-0.7-0.7
				c-0.2-0.3-0.4-0.6-0.5-0.9s-0.2-0.7-0.3-1.1c-0.1-0.4-0.1-0.8-0.1-1.2c0-0.4,0-0.8,0-1.3v-7.6H176v-3h1.6V8.7h4.6v4.9h2.3v3h-2.3
				v8.4c0,0.9,0.5,1.3,1.5,1.3c0.1,0,0.3,0,0.4,0s0.3,0,0.4,0c0.1,0,0.2,0,0.3-0.1s0.1,0,0.1,0v3.6c-1,0.2-1.9,0.2-2.7,0.2
				C182,30.1,181.8,30.1,181.6,30.1z"/>
			<path class="st3" d="M187,29.9V13.6h4.6v2.7c1-1.9,2.1-2.9,3.3-2.9c0.2,0,0.4,0,0.6,0.1v4.1c-0.3-0.1-0.5-0.1-0.8-0.1
				c-1.3,0.1-2.3,0.7-3.2,2v10.4L187,29.9L187,29.9z"/>
			<path class="st3" d="M200.7,30.2c-1.1,0-2.1-0.4-2.8-1.2c-0.7-0.8-1-1.7-1-2.7c0-0.5,0.1-1,0.2-1.5c0.1-0.5,0.3-0.9,0.5-1.2
				c0.2-0.4,0.4-0.7,0.8-1s0.6-0.6,0.9-0.8c0.3-0.2,0.6-0.4,1.1-0.6c0.4-0.2,0.8-0.4,1.1-0.5c0.3-0.1,0.6-0.3,1.1-0.4s0.8-0.3,1-0.4
				v-1.6c0-0.5-0.1-0.8-0.2-1.1c-0.1-0.2-0.4-0.4-0.8-0.4c-0.6,0-0.9,0.4-1,1.3l-0.1,1.2l-4.2-0.2c0,0,0-0.1,0-0.3s0-0.2,0-0.3
				c0.1-1.8,0.7-3.1,1.6-3.9c1-0.9,2.4-1.3,4.2-1.3c1.6,0,2.8,0.4,3.7,1.3c0.8,0.9,1.3,2.1,1.3,3.6v7.6c0,1,0.1,2.4,0.3,4.1h-4.1
				c-0.2-1.3-0.4-2.1-0.4-2.3c-0.2,0.7-0.6,1.4-1.1,1.9C202.2,30,201.5,30.2,200.7,30.2z M202.3,27c0.2,0,0.4-0.1,0.7-0.2
				c0.2-0.1,0.4-0.3,0.6-0.5v-4.4c-0.7,0.4-1.3,0.9-1.8,1.6s-0.7,1.3-0.7,1.9c0,0.5,0.1,0.9,0.4,1.3C201.7,26.9,202,27,202.3,27z"/>
			<path class="st3" d="M210.7,35.3V13.6h4.6v1.2c1.1-1,2.2-1.5,3.4-1.5c0.1,0,0.1,0,0.1,0c1.2,0,2,0.5,2.6,1.4
				c0.6,0.9,0.9,2,0.9,3.4v6.9c0,1.6-0.3,2.8-0.9,3.7c-0.6,0.9-1.5,1.4-2.6,1.4s-2.3-0.5-3.4-1.5v6.5H210.7z M216.6,27.2
				C216.6,27.2,216.6,27.2,216.6,27.2c0.4,0,0.7-0.2,0.9-0.5c0.2-0.4,0.3-0.8,0.3-1.3v-7.6c0-0.5-0.1-0.9-0.3-1.2
				c-0.2-0.3-0.4-0.4-0.8-0.4c0,0-0.1,0-0.1,0c-0.4,0-0.7,0.2-1.2,0.5v10.1C215.8,27.1,216.2,27.2,216.6,27.2z"/>
		</g>
	</g>
	<g>
		<rect x="3.7" y="8" class="st7" width="113.3" height="12.6"/>
		<g class="st8">
			<path class="st6" d="M5.8,20.4V10H3.8V8h6.6v2H8.5v10.4L5.8,20.4L5.8,20.4z"/>
			<path class="st6" d="M11.3,20.4V8h2.5v4.4c0.6-0.6,1.3-0.9,2.2-0.9c0.5,0,0.9,0.2,1.2,0.6c0.3,0.4,0.4,0.9,0.4,1.5v7h-2.5v-6.6
				c0-0.2,0-0.4-0.1-0.5c-0.1-0.1-0.2-0.2-0.4-0.2c-0.2,0-0.5,0.1-0.8,0.3v6.9L11.3,20.4L11.3,20.4z"/>
			<path class="st6" d="M22,20.6c-1,0-1.7-0.3-2.3-0.8c-0.5-0.5-0.8-1.3-0.8-2.2v-3.2c0-0.9,0.3-1.7,0.8-2.2
				c0.5-0.5,1.3-0.8,2.3-0.8c1,0,1.7,0.3,2.2,0.8c0.5,0.5,0.7,1.3,0.7,2.2v1.7h-3.5v1.6c0,0.4,0,0.6,0.1,0.8
				c0.1,0.2,0.2,0.3,0.4,0.3c0.4,0,0.6-0.3,0.6-0.9v-0.6H25v0.5c0,0.9-0.3,1.6-0.8,2C23.7,20.3,23,20.6,22,20.6z M21.4,15h1.2v-0.9
				c0-0.3,0-0.6-0.2-0.7c-0.1-0.1-0.3-0.2-0.5-0.2c-0.2,0-0.3,0.1-0.4,0.2c-0.1,0.2-0.1,0.4-0.1,0.8L21.4,15
				C21.5,15,21.4,15,21.4,15z"/>
			<path class="st6" d="M26.3,20.4v-8.9h2.5v0.7c0.6-0.6,1.3-0.9,2.1-0.9c0.4,0,0.7,0.1,0.9,0.3s0.5,0.4,0.6,0.8
				c0.6-0.7,1.4-1,2.3-1c0.5,0,0.9,0.2,1.2,0.6c0.3,0.4,0.5,0.9,0.5,1.6v6.9h-2.5v-6.6c0-0.2,0-0.4-0.1-0.5
				c-0.1-0.1-0.2-0.2-0.4-0.1c-0.3,0-0.5,0.1-0.8,0.3v0.1v6.9h-2.4v-6.6c0-0.2,0-0.4-0.1-0.5c-0.1-0.1-0.2-0.2-0.4-0.2
				c-0.3,0-0.5,0.1-0.8,0.3v7L26.3,20.4L26.3,20.4z"/>
			<path class="st6" d="M40.8,20.6c-1,0-1.7-0.3-2.3-0.8c-0.5-0.5-0.8-1.3-0.8-2.2v-3.2c0-0.9,0.3-1.7,0.8-2.2s1.3-0.8,2.3-0.8
				c1,0,1.7,0.3,2.2,0.8c0.5,0.5,0.7,1.3,0.7,2.2v1.7h-3.5v1.6c0,0.4,0,0.6,0.1,0.8c0.1,0.2,0.2,0.3,0.4,0.3c0.4,0,0.6-0.3,0.6-0.9
				v-0.6h2.3v0.5c0,0.9-0.3,1.6-0.8,2C42.5,20.3,41.7,20.6,40.8,20.6z M40.2,15h1.2v-0.9c0-0.3,0-0.6-0.2-0.7
				c-0.1-0.1-0.3-0.2-0.5-0.2s-0.3,0.1-0.4,0.2c-0.1,0.2-0.1,0.4-0.1,0.8L40.2,15C40.2,15,40.2,15,40.2,15z"/>
			<path class="st6" d="M47.7,20.6c-0.8,0-1.4-0.2-1.9-0.5c-0.5-0.4-0.9-0.9-1.2-1.7l1.7-0.8c0.2,0.4,0.4,0.7,0.6,1
				c0.2,0.2,0.4,0.3,0.6,0.3c0,0,0,0,0.1,0c0.2,0,0.3-0.1,0.4-0.2c0.1-0.1,0.2-0.3,0.1-0.4c0-0.1,0-0.2-0.1-0.3
				c-0.1-0.1-0.2-0.2-0.3-0.4s-0.3-0.3-0.3-0.3c-0.1,0-0.2-0.2-0.4-0.4l-0.7-0.6c-1-0.9-1.5-1.7-1.5-2.5c0-0.5,0.1-0.9,0.4-1.3
				c0.3-0.4,0.6-0.7,1-0.9c0.4-0.2,0.9-0.3,1.3-0.3c0.7,0,1.3,0.2,1.8,0.6c0.5,0.4,0.8,1,1,1.7l-1.6,0.7c-0.1-0.3-0.2-0.6-0.4-0.9
				s-0.4-0.4-0.6-0.4c0,0,0,0,0,0c-0.2,0-0.3,0-0.4,0.1c-0.1,0.1-0.2,0.2-0.2,0.4c0,0.2,0.3,0.7,1.1,1.3c0.1,0,0.1,0.1,0.1,0.1
				l0.7,0.6c0.3,0.2,0.4,0.4,0.6,0.5c0.1,0.1,0.3,0.3,0.5,0.5c0.2,0.2,0.3,0.4,0.4,0.7c0.1,0.2,0.1,0.5,0.1,0.8
				c0,0.5-0.1,0.9-0.4,1.3s-0.6,0.7-1,0.8C48.7,20.5,48.2,20.6,47.7,20.6z"/>
			<path class="st6" d="M55.7,20.4V8h3.2c0.5,0,0.9,0,1.2,0.1s0.7,0.1,1.1,0.3c0.4,0.1,0.7,0.3,0.9,0.6c0.2,0.2,0.4,0.5,0.6,0.9
				c0.1,0.4,0.2,0.8,0.2,1.3c0,0,0,0.1,0,0.1c0,1.4-0.6,2.3-1.8,2.5c0.7,0.1,1.3,0.4,1.6,0.9s0.6,1.2,0.6,2.1c0,0,0,0.1,0,0.1
				c0,1.2-0.3,2.1-0.9,2.7c-0.6,0.6-1.6,0.9-2.8,0.9L55.7,20.4L55.7,20.4z M58.4,12.9h0.5c0.6,0,1-0.1,1.2-0.4
				c0.2-0.3,0.3-0.7,0.3-1.3c0-1-0.5-1.5-1.6-1.5h-0.4V12.9z M58.4,18.5H59c0.6,0,1-0.1,1.3-0.4c0.2-0.3,0.4-0.8,0.4-1.4
				c0-0.7-0.1-1.2-0.4-1.5c-0.2-0.3-0.7-0.4-1.3-0.4h-0.5V18.5z"/>
			<path class="st6" d="M69.7,19.8c-0.5,0.5-1.3,0.8-2.3,0.8s-1.7-0.3-2.3-0.8s-0.8-1.2-0.8-2.2v-3.4c0-0.9,0.3-1.7,0.8-2.2
				s1.3-0.7,2.3-0.7s1.7,0.3,2.3,0.8s0.8,1.2,0.8,2.2v3.4C70.6,18.6,70.3,19.3,69.7,19.8z M67.5,18.9c0.2,0,0.4-0.1,0.5-0.3
				c0.1-0.2,0.1-0.4,0.1-0.8v-3.7c0-0.4,0-0.6-0.1-0.8c-0.1-0.2-0.3-0.3-0.5-0.3c-0.2,0-0.4,0.1-0.5,0.3c-0.1,0.2-0.1,0.4-0.1,0.8
				v3.7c0,0.3,0,0.6,0.1,0.8C67.1,18.8,67.2,18.9,67.5,18.9z"/>
			<path class="st6" d="M77.2,19.8c-0.5,0.5-1.3,0.8-2.3,0.8c-1,0-1.7-0.3-2.3-0.8c-0.5-0.5-0.8-1.2-0.8-2.2v-3.4
				c0-0.9,0.3-1.7,0.8-2.2c0.5-0.5,1.3-0.7,2.3-0.7c1,0,1.7,0.3,2.3,0.8c0.5,0.5,0.8,1.2,0.8,2.2v3.4C78,18.6,77.7,19.3,77.2,19.8z
				 M74.9,18.9c0.2,0,0.4-0.1,0.5-0.3c0.1-0.2,0.1-0.4,0.1-0.8v-3.7c0-0.4,0-0.6-0.1-0.8c-0.1-0.2-0.3-0.3-0.5-0.3
				c-0.2,0-0.4,0.1-0.5,0.3c-0.1,0.2-0.1,0.4-0.1,0.8v3.7c0,0.3,0,0.6,0.1,0.8C74.5,18.8,74.6,18.9,74.9,18.9z"/>
			<path class="st6" d="M81.9,20.5c-0.3,0-0.5,0-0.7-0.1c-0.2-0.1-0.4-0.2-0.6-0.3c-0.2-0.1-0.3-0.2-0.4-0.4
				c-0.1-0.2-0.2-0.3-0.3-0.5c-0.1-0.2-0.1-0.4-0.2-0.6s-0.1-0.4-0.1-0.6c0-0.2,0-0.4,0-0.7v-4.1h-0.9v-1.6h0.9V8.9h2.5v2.7h1.3v1.6
				h-1.3v4.6c0,0.5,0.3,0.7,0.8,0.7c0.1,0,0.1,0,0.2,0c0.1,0,0.1,0,0.2,0c0,0,0.1,0,0.2,0s0.1,0,0.1,0v2c-0.5,0.1-1,0.1-1.5,0.1
				C82,20.5,82,20.5,81.9,20.5z"/>
			<path class="st6" d="M87.4,20.6c-0.8,0-1.4-0.2-1.9-0.5c-0.5-0.4-0.9-0.9-1.2-1.7l1.7-0.8c0.2,0.4,0.4,0.7,0.6,1
				c0.2,0.2,0.4,0.3,0.6,0.3c0,0,0,0,0.1,0c0.2,0,0.3-0.1,0.4-0.2c0.1-0.1,0.2-0.3,0.1-0.4c0-0.1,0-0.2-0.1-0.3
				c-0.1-0.1-0.2-0.2-0.3-0.4c-0.2-0.1-0.3-0.3-0.3-0.3c-0.1,0-0.2-0.2-0.4-0.4L86,16.4c-1-0.9-1.5-1.7-1.5-2.5
				c0-0.5,0.1-0.9,0.4-1.3c0.3-0.4,0.6-0.7,1-0.9c0.4-0.2,0.9-0.3,1.3-0.3c0.7,0,1.3,0.2,1.8,0.6c0.5,0.4,0.8,1,1,1.7l-1.6,0.8
				c-0.1-0.3-0.2-0.6-0.4-0.9s-0.4-0.4-0.6-0.4c0,0,0,0,0,0c-0.2,0-0.3,0-0.4,0.1c-0.1,0.1-0.2,0.2-0.2,0.4c0,0.2,0.3,0.7,1.1,1.3
				C87.9,15,88,15,88,15l0.7,0.6c0.3,0.2,0.4,0.4,0.6,0.5c0.1,0.1,0.3,0.3,0.5,0.5c0.2,0.2,0.3,0.4,0.4,0.7c0.1,0.2,0.1,0.5,0.1,0.8
				c0,0.5-0.1,0.9-0.4,1.3c-0.3,0.4-0.6,0.7-1,0.8C88.4,20.5,87.9,20.6,87.4,20.6z"/>
			<path class="st6" d="M93.8,20.5c-0.3,0-0.5,0-0.7-0.1c-0.2-0.1-0.4-0.2-0.6-0.3c-0.2-0.1-0.3-0.2-0.4-0.4
				c-0.1-0.2-0.2-0.3-0.3-0.5c-0.1-0.2-0.1-0.4-0.2-0.6c0-0.2-0.1-0.4-0.1-0.6c0-0.2,0-0.4,0-0.7v-4.1h-0.9v-1.6h0.9V8.9h2.5v2.7
				h1.3v1.6h-1.3v4.6c0,0.5,0.3,0.7,0.8,0.7c0.1,0,0.1,0,0.2,0c0.1,0,0.1,0,0.2,0c0,0,0.1,0,0.2,0s0.1,0,0.1,0v2
				c-0.5,0.1-1,0.1-1.5,0.1C94,20.5,93.9,20.5,93.8,20.5z"/>
			<path class="st6" d="M96.7,20.4v-8.9h2.5V13c0.5-1.1,1.1-1.6,1.8-1.6c0.1,0,0.2,0,0.4,0.1v2.2c-0.1,0-0.3,0-0.4,0
				c-0.7,0-1.3,0.4-1.7,1.1v5.7L96.7,20.4L96.7,20.4z"/>
			<path class="st6" d="M104.2,20.6c-0.6,0-1.1-0.2-1.5-0.7c-0.4-0.4-0.6-0.9-0.6-1.5c0-0.3,0-0.6,0.1-0.8c0.1-0.3,0.2-0.5,0.3-0.7
				c0.1-0.2,0.2-0.4,0.4-0.5c0.2-0.2,0.4-0.3,0.5-0.4c0.1-0.1,0.4-0.2,0.6-0.3c0.2-0.1,0.4-0.2,0.6-0.3c0.1-0.1,0.4-0.1,0.6-0.2
				c0.3-0.1,0.4-0.2,0.5-0.2V14c0-0.3,0-0.4-0.1-0.6s-0.2-0.2-0.4-0.2c-0.3,0-0.5,0.2-0.5,0.7l-0.1,0.7l-2.3-0.1c0,0,0-0.1,0-0.1
				c0-0.1,0-0.1,0-0.1c0.1-1,0.4-1.7,0.9-2.1c0.5-0.5,1.3-0.7,2.3-0.7c0.9,0,1.5,0.2,2,0.7c0.4,0.5,0.7,1.1,0.7,1.9v4.1
				c0,0.6,0,1.3,0.2,2.2h-2.2c-0.1-0.7-0.2-1.1-0.2-1.3c-0.1,0.4-0.3,0.7-0.6,1C105,20.4,104.6,20.6,104.2,20.6z M105.1,18.8
				c0.1,0,0.2,0,0.4-0.1c0.1-0.1,0.2-0.2,0.3-0.3V16c-0.4,0.2-0.7,0.5-1,0.9c-0.3,0.4-0.4,0.7-0.4,1.1c0,0.3,0.1,0.5,0.2,0.7
				C104.7,18.8,104.9,18.8,105.1,18.8z"/>
			<path class="st6" d="M109.6,23.3V11.5h2.5v0.7c0.6-0.5,1.2-0.8,1.8-0.8c0,0,0.1,0,0.1,0c0.6,0,1.1,0.3,1.4,0.8
				c0.3,0.5,0.5,1.1,0.5,1.9v3.8c0,0.9-0.2,1.5-0.5,2c-0.3,0.5-0.8,0.8-1.4,0.8c-0.6,0-1.2-0.3-1.9-0.8v3.6L109.6,23.3L109.6,23.3z
				 M112.8,18.9C112.8,18.9,112.8,18.9,112.8,18.9c0.2,0,0.4-0.1,0.5-0.3c0.1-0.2,0.1-0.4,0.2-0.7v-4.1c0-0.3,0-0.5-0.2-0.7
				c-0.1-0.2-0.2-0.2-0.4-0.2c0,0,0,0-0.1,0c-0.2,0-0.4,0.1-0.7,0.3v5.5C112.4,18.9,112.6,18.9,112.8,18.9z"/>
		</g>
	</g>
	<g>
	</g>
	<g>
	</g>
	<g>
	</g>
	<g>
	</g>
	<g>
	</g>
	<g>
	</g>
	<g>
	</g>
	<g>
	</g>
	<g>
	</g>
	<g>
	</g>
	<g>
	</g>
	<g>
	</g>
	<g>
	</g>
	<g>
	</g>
	<g>
	</g>
</g>
</svg>
